<svg xmlns="http://www.w3.org/2000/svg" viewBox="0 0 1200 700" role="img" aria-label="Living room with a couch, trash can full of hotdog buns, dog portrait, and microwave">
  <rect width="1200" height="700" fill="#f0ddbf"/>
  <rect y="470" width="1200" height="230" fill="#b78f6d"/>

  <rect x="70" y="90" width="180" height="230" rx="8" fill="#7a4d26"/>
  <rect x="85" y="105" width="150" height="200" fill="#efe6db" stroke="#333" stroke-width="4"/>
  <ellipse cx="140" cy="180" rx="16" ry="30" fill="#5a3619"/>
  <ellipse cx="180" cy="180" rx="16" ry="30" fill="#5a3619"/>
  <circle cx="130" cy="210" r="7" fill="#111"/>
  <circle cx="190" cy="210" r="7" fill="#111"/>
  <ellipse cx="160" cy="245" rx="16" ry="11" fill="#111"/>

  <rect x="290" y="410" width="560" height="170" rx="26" fill="#4d7ea8"/>
  <rect x="290" y="530" width="560" height="50" rx="20" fill="#3f6788"/>
  <rect x="330" y="438" width="150" height="90" rx="14" fill="#77a7cf" stroke="#3f6788" stroke-width="4"/>
  <rect x="495" y="438" width="150" height="90" rx="14" fill="#77a7cf" stroke="#3f6788" stroke-width="4"/>
  <rect x="660" y="438" width="150" height="90" rx="14" fill="#77a7cf" stroke="#3f6788" stroke-width="4"/>

  <rect x="930" y="430" width="120" height="140" rx="16" fill="#b9c0c9"/>
  <ellipse cx="970" cy="430" rx="24" ry="14" fill="#e0b470" stroke="#c58c43" stroke-width="4"/>
  <ellipse cx="1002" cy="420" rx="24" ry="14" fill="#e0b470" stroke="#c58c43" stroke-width="4"/>
  <ellipse cx="1032" cy="435" rx="24" ry="14" fill="#e0b470" stroke="#c58c43" stroke-width="4"/>

  <rect x="905" y="270" width="190" height="120" rx="12" fill="#949ba5" stroke="#5f6670" stroke-width="5"/>
  <rect x="930" y="295" width="115" height="68" rx="8" fill="#1d2328"/>
  <circle cx="1065" cy="315" r="5" fill="#2f3338"/>
  <circle cx="1082" cy="315" r="5" fill="#2f3338"/>
  <rect x="1058" y="338" width="34" height="9" rx="4" fill="#2f3338"/>

  <text x="70" y="55" font-family="Arial, sans-serif" font-size="42" fill="#2a2a2a">Eddie's Couch</text>
</svg>
